<svg xmlns="http://www.w3.org/2000/svg" width="128" height="128" viewBox="0 0 128 128" fill="none">
<path d="M25 25H15V33H25V25Z" fill="#ED9D3E"/>
<path d="M25 25.5C25 25.5 15 27.2 15 32.5V25H24.94L25 25.5Z" fill="#D66729"/>
<path d="M27.654 23.145C27.37 23.929 26.878 24.622 26.289 25.211C26.104 25.396 25.853 25.5 25.592 25.5H14.408C14.147 25.5 13.896 25.396 13.711 25.211C13.122 24.622 12.63 23.928 12.346 23.144C11.495 20.794 12.264 18.283 14.1 16.819C16.02 15.279 17.75 13.499 19.23 11.529L20 10.5L20.77 11.53C22.25 13.5 23.98 15.28 25.9 16.82C27.736 18.283 28.505 20.795 27.654 23.145Z" fill="#ED9D3E"/>
<path d="M18.27 25.5H14.408C14.147 25.5 13.896 25.396 13.711 25.211C13.122 24.622 12.63 23.928 12.346 23.144C11.495 20.794 12.264 18.283 14.1 16.819C16.02 15.279 17.75 13.499 19.23 11.529L20 10.5L20.77 11.53C20.77 11.53 19.04 15.223 17.31 16.19C12.894 18.66 13.16 24.4 18.27 25.5Z" fill="#D66729"/>
<path d="M87 44.1V50H41V44.1C41 34.3 46.75 25.41 55.68 21.39C57.41 20.61 59 19.58 60.41 18.33C61.81 17.09 63.02 15.63 64 14C64.59 14.99 65.27 15.91 66.03 16.76C66.51 17.32 67.04 17.84 67.59 18.33C69 19.58 70.59 20.61 72.32 21.39C76.78 23.4 80.46 26.63 83.01 30.58C85.56 34.53 87 39.2 87 44.1Z" fill="#FFD066"/>
<path d="M66.79 50H41V44.1C41 34.3 46.75 25.41 55.68 21.39C57.41 20.61 59 19.58 60.41 18.33C61.81 17.09 63.02 15.63 64 14C64.59 14.99 65.27 15.91 66.03 16.76C65.7 17.02 65.096 17.676 63.09 18.3C61.244 18.875 61.873 21.654 55.34 24.574C46 28.75 42.02 50 66.79 50Z" fill="#ED9D3E"/>
<path d="M64 17C59.864 17 56.5 13.636 56.5 9.5C56.5 5.364 59.864 2 64 2C64.829 2 65.5 2.671 65.5 3.5C65.5 4.329 64.829 5 64 5C61.519 5 59.5 7.019 59.5 9.5C59.5 11.981 61.519 14 64 14C66.481 14 68.5 11.981 68.5 9.5C68.5 8.671 69.171 8 70 8C70.829 8 71.5 8.671 71.5 9.5C71.5 13.636 68.136 17 64 17Z" fill="#FFD066"/>
<path d="M90 50H38V76H90V50Z" fill="#3F6C5A"/>
<path d="M59.5 67.5H52.5V60C52.5 58.067 54.067 56.5 56 56.5C57.933 56.5 59.5 58.067 59.5 60V67.5Z" fill="#3C8F6E"/>
<path d="M27.865 32.5H12.135C11.287 32.5 10.824 33.489 11.367 34.14L15 38.5V48H25V38.5L28.633 34.14C29.176 33.489 28.713 32.5 27.865 32.5Z" fill="#3F6C5A"/>
<path d="M31 47L30.93 47.15L28 54H12.66C12.26 54 11.9 53.76 11.74 53.39L9.6 48.39C9.31 47.73 9.8 47 10.52 47H31Z" fill="#ED9D3E"/>
<path d="M31 47L30.93 47.15L28 54H21.17C21.36 52.98 21.7 51.99 22.17 51.06C22.93 49.58 24.05 48.29 25.41 47.31C25.55 47.21 25.69 47.1 25.83 47H31Z" fill="#D66729"/>
<path d="M26 54H14V98H26V54Z" fill="#3F6C5A"/>
<path d="M24.24 54H21.17H14V62.98C14 58.489 17.415 56.372 21.027 55.16C20.998 55.473 21 55.566 21 55.88C21 57.62 21.42 59.29 22.21 60.78C21.47 61.65 21 62.77 21 64V80H26V54H24.24Z" fill="#2C5040"/>
<path d="M46 64V77H24V64C24 62.9 24.9 62 26 62H44C45.1 62 46 62.9 46 64Z" fill="#3C8F6E"/>
<path d="M28.739 67.395C27.309 64.464 27.09 62 27.09 62H26C24.9 62 24 62.9 24 64V72.78V77H46V65.1L33.653 69.41C31.743 70.077 29.626 69.213 28.739 67.395Z" fill="#3F6C5A"/>
<path d="M46 55.88C46 57.88 45.21 59.79 43.79 61.21L43 62H27L26.21 61.21C24.79 59.79 24 57.88 24 55.88C24 54.66 24.3 53.48 24.84 52.43C25.38 51.38 26.17 50.46 27.16 49.75C29.71 47.92 31.99 45.76 33.95 43.31L35 42L36.05 43.31C38.01 45.76 40.29 47.92 42.84 49.75C43.83 50.46 44.62 51.38 45.16 52.43C45.7 53.48 46 54.66 46 55.88Z" fill="#FFD066"/>
<path d="M35.32 62H27L26.21 61.21C24.79 59.79 24 57.88 24 55.88C24 54.66 24.3 53.48 24.84 52.43C25.38 51.38 26.17 50.46 27.16 49.75C29.71 47.92 31.99 45.76 33.95 43.31L35 42C35 42 35.26 46.96 30.66 50.28C26.06 53.6 27.98 62 35.32 62Z" fill="#ED9D3E"/>
<path d="M68.5 67.5H75.5V60C75.5 58.067 73.933 56.5 72 56.5C70.067 56.5 68.5 58.067 68.5 60V67.5Z" fill="#3C8F6E"/>
<path d="M113 25H103V33H113V25Z" fill="#ED9D3E"/>
<path d="M113 25.5C113 25.5 103 27.2 103 32.5V25H112.94L113 25.5Z" fill="#D66729"/>
<path d="M115.865 32.5H100.135C99.287 32.5 98.824 33.489 99.367 34.14L103 38.5V48H113V38.5L116.633 34.14C117.176 33.489 116.713 32.5 115.865 32.5Z" fill="#3F6C5A"/>
<path d="M118.4 48.39L116.26 53.39C116.1 53.76 115.74 54 115.34 54H100L97 47H117.48C118.2 47 118.69 47.73 118.4 48.39Z" fill="#ED9D3E"/>
<path d="M106.83 54H100L97 47H102.19C102.32 47.11 102.45 47.2 102.59 47.3C104.83 48.91 106.34 51.32 106.83 54Z" fill="#D66729"/>
<path d="M114 54H102V98H114V54Z" fill="#3F6C5A"/>
<path d="M114 54H106.83H105.851H102V80H107V64C107 62.77 106.53 61.65 105.79 60.78C105.907 60.558 106 60.325 106.101 60.095C108.463 55.295 114 54 114 54Z" fill="#2C5040"/>
<path d="M104 64V77H82V64C82 62.9 82.9 62 84 62H102C103.1 62 104 62.9 104 64Z" fill="#3C8F6E"/>
<path d="M85.581 64.371C85.175 62.95 85.09 62 85.09 62H84C82.9 62 82 62.9 82 64V64.96V77H104V72.46L88.136 67.052C86.899 66.63 85.939 65.628 85.581 64.371Z" fill="#3F6C5A"/>
<path d="M82 55.878C82 57.877 82.794 59.794 84.207 61.207L85 62H101L101.793 61.207C103.206 59.794 104 57.877 104 55.878C104 53.444 102.825 51.16 100.844 49.745C98.294 47.923 96.007 45.758 94.049 43.31L93 42L91.951 43.311C89.993 45.758 87.706 47.924 85.156 49.746C83.175 51.16 82 53.444 82 55.878Z" fill="#FFD066"/>
<path d="M96.054 48.956C96.137 48.737 96.424 48.678 96.58 48.853C97.27 49.626 98.996 51.493 100.186 52.222C101.635 53.109 100.653 54.611 100.201 55.178C100.096 55.31 99.909 55.333 99.775 55.23C98.8 54.477 95.118 51.436 96.054 48.956ZM38.627 48.962C38.71 48.743 38.997 48.683 39.153 48.858C39.844 49.63 41.572 51.495 42.763 52.223C44.213 53.109 43.233 54.612 42.782 55.179C42.677 55.311 42.49 55.334 42.357 55.231C41.379 54.48 37.693 51.443 38.627 48.962Z" fill="#FFF7E1"/>
<path d="M93.32 62H85L84.21 61.21C82.79 59.79 82 57.88 82 55.88C82 54.66 82.3 53.48 82.84 52.43C83.38 51.38 84.17 50.46 85.16 49.75C87.71 47.92 89.99 45.76 91.95 43.31L93 42C93 42 93.26 46.96 88.66 50.28C84.06 53.6 85.98 62 93.32 62ZM115.654 23.145C115.37 23.929 114.878 24.622 114.289 25.211C114.104 25.396 113.853 25.5 113.592 25.5H102.409C102.148 25.5 101.897 25.396 101.712 25.211C101.123 24.622 100.631 23.928 100.347 23.144C99.496 20.794 100.265 18.283 102.101 16.819C104.021 15.279 105.751 13.499 107.231 11.529L108 10.5L108.77 11.53C110.25 13.5 111.98 15.28 113.9 16.82C115.736 18.283 116.505 20.795 115.654 23.145Z" fill="#ED9D3E"/>
<path d="M106.27 25.5H102.408C102.147 25.5 101.896 25.396 101.711 25.211C101.122 24.622 100.63 23.928 100.346 23.144C99.495 20.794 100.264 18.283 102.1 16.819C104.02 15.279 105.75 13.499 107.23 11.529L108 10.5L108.77 11.53C108.77 11.53 107.04 15.223 105.31 16.19C100.894 18.66 101.16 24.4 106.27 25.5Z" fill="#D66729"/>
<path d="M108.401 11.5C106.195 11.5 104.401 9.706 104.401 7.5C104.401 5.294 106.195 3.5 108.401 3.5C108.953 3.5 109.401 3.948 109.401 4.5C109.401 5.052 108.953 5.5 108.401 5.5C107.298 5.5 106.401 6.397 106.401 7.5C106.401 8.603 107.298 9.5 108.401 9.5C109.113 9.5 109.777 9.117 110.134 8.5C110.411 8.021 111.023 7.858 111.5 8.135C111.979 8.412 112.142 9.023 111.865 9.501C111.152 10.734 109.825 11.5 108.401 11.5Z" fill="#ED9D3E"/>
<path d="M21 120V77L64 62V120H21Z" fill="#3C8F6E"/>
<path d="M21 86C21 86 22.745 89.596 31.18 89.051L21 92.404V86Z" fill="#3F6C5A"/>
<path d="M64 62V71L21 86V77L64 62Z" fill="#ED9D3E"/>
<path d="M107 120V77L64 62V120H107Z" fill="#26B99A"/>
<path d="M107 86C107 86 105.255 89.596 96.82 89.051L107 92.404V86Z" fill="#3C8F6E"/>
<path d="M64 62V71L107 86V77L64 62Z" fill="#FFD066"/>
<path d="M31 89L38 91V118H31V89Z" fill="#3F6C5A"/>
<path d="M7 120V95L31 89V119.5L7 120Z" fill="#3C8F6E"/>
<path d="M26 110.3V119.5C26 120.33 25.33 121 24.5 121H13.5C12.67 121 12 120.33 12 119.5V110.3C12 105.56 14.29 101.07 18.12 98.29C18.64 97.9 19.36 97.9 19.88 98.29C23.71 101.07 26 105.56 26 110.3Z" fill="#ED9D3E"/>
<path d="M15 119.5V110.3C15 105.83 17.055 101.6 20.5 98.8C20.292 98.631 20.098 98.449 19.88 98.29C19.36 97.9 18.64 97.9 18.12 98.29C14.29 101.07 12 105.56 12 110.3V119.5C12 120.33 12.67 121 13.5 121H16.5C15.67 121 15 120.33 15 119.5Z" fill="#D66729"/>
<path d="M59 100.13V118.5C59 119.33 58.33 120 57.5 120H44.5C43.67 120 43 119.33 43 118.5V100.13C43 94.91 45.76 89.96 50.21 87.22C50.7 86.93 51.3 86.93 51.79 87.22C56.24 89.96 59 94.91 59 100.13Z" fill="#ED9D3E"/>
<path d="M46 118.5V100.13C46 95.194 48.47 90.503 52.5 87.69C52.268 87.528 52.032 87.369 51.79 87.22C51.3 86.93 50.7 86.93 50.21 87.22C45.76 89.96 43 94.91 43 100.13V118.5C43 119.33 43.67 120 44.5 120H47.5C46.67 120 46 119.33 46 118.5Z" fill="#D66729"/>
<path d="M97 89L90 91V118H97V89Z" fill="#3C8F6E"/>
<path d="M121 120V95L97 89V119.5L121 120Z" fill="#26B99A"/>
<path d="M116 110.3V119.5C116 120.33 115.33 121 114.5 121H103.5C102.67 121 102 120.33 102 119.5V110.3C102 105.56 104.29 101.07 108.12 98.29C108.64 97.9 109.36 97.9 109.88 98.29C113.71 101.07 116 105.56 116 110.3Z" fill="#FFD066"/>
<path d="M109.88 98.29C109.36 97.9 108.64 97.9 108.12 98.29C107.902 98.448 107.708 98.631 107.5 98.8C110.945 101.601 113 105.83 113 110.3V119.5C113 120.33 112.33 121 111.5 121H114.5C115.33 121 116 120.33 116 119.5V110.3C116 105.56 113.71 101.07 109.88 98.29Z" fill="#ED9D3E"/>
<path d="M85 100.13V118.5C85 119.33 84.33 120 83.5 120H70.5C69.67 120 69 119.33 69 118.5V100.13C69 94.91 71.76 89.96 76.21 87.22C76.7 86.93 77.3 86.93 77.79 87.22C82.24 89.96 85 94.91 85 100.13Z" fill="#FFD066"/>
<path d="M77.79 87.22C77.3 86.93 76.7 86.93 76.21 87.22C75.968 87.369 75.732 87.528 75.5 87.69C79.53 90.503 82 95.194 82 100.13V118.5C82 119.33 81.33 120 80.5 120H83.5C84.33 120 85 119.33 85 118.5V100.13C85 94.91 82.24 89.96 77.79 87.22Z" fill="#ED9D3E"/>
<path d="M121 119V124H7V119L64 113.5L121 119Z" fill="#ECEAFD"/>
<path d="M20 11.5C17.794 11.5 16 9.706 16 7.5C16 5.294 17.794 3.5 20 3.5C20.552 3.5 21 3.948 21 4.5C21 5.052 20.552 5.5 20 5.5C18.897 5.5 18 6.397 18 7.5C18 8.603 18.897 9.5 20 9.5C20.712 9.5 21.376 9.117 21.733 8.5C22.01 8.021 22.623 7.858 23.099 8.135C23.578 8.412 23.741 9.023 23.464 9.501C22.751 10.734 21.423 11.5 20 11.5Z" fill="#ED9D3E"/>
<path d="M25 38.5C25 38.5 15 39.596 15 47V38.5H24.787M113.201 38.5C113.201 38.5 103.201 39.596 103.201 47V38.5H112.988" fill="#2C5040"/>
<path d="M73.459 25.719C75.439 26.621 80.149 29.305 81.606 34.933C81.732 35.42 81.279 35.866 80.801 35.71C78.438 34.938 72.828 32.467 72.565 26.341C72.545 25.866 73.026 25.522 73.459 25.719Z" fill="#FFF7E1"/>
<path d="M110.603 16.503C110.66 16.351 110.859 16.31 110.967 16.432C111.445 16.967 112.64 18.26 113.465 18.765C114.469 19.38 113.789 20.42 113.476 20.812C113.403 20.903 113.274 20.919 113.181 20.848C112.505 20.328 109.954 18.221 110.603 16.503ZM22.357 16.503C22.414 16.351 22.613 16.31 22.721 16.432C23.199 16.967 24.394 18.26 25.219 18.765C26.223 19.38 25.543 20.42 25.23 20.812C25.157 20.903 25.028 20.919 24.935 20.848C24.259 20.328 21.709 18.221 22.357 16.503Z" fill="#FFD066"/>
</svg>