<svg xmlns="http://www.w3.org/2000/svg" width="128" height="128" viewBox="0 0 128 128" fill="none">
<path d="M10 101C10 101 32.702 97.511 44 113L30.362 117.681L12.575 110.958L10 101Z" fill="#C5C2FF"/>
<path d="M62.71 52.62L58.86 73.64C58.09 77.8 56.32 81.72 53.7 85.05L46 97L41.8 112.83C25.6 116.66 13.12 103.1 13.12 103.1L17.1 86.15L12.12 71.73C11.17 69 10.87 66.08 11.22 63.21L14.64 49.34C15.23 46.95 18.14 46.01 20.01 47.62C22.85 50.06 24.39 53.68 24.17 57.41L23.87 62.74L23.72 65.38C24.12 64.49 24.52 63.58 24.9 62.65C26.8 58.22 28.62 53.35 30.27 48.05C31.44 44.26 32.41 40.62 33.21 37.16C33.28 36.94 33.61 36.07 34.55 35.52C35.16 35.17 35.89 35.03 36.63 35.18L37.96 35.44C38.19 35.48 38.41 35.56 38.62 35.66C39.88 36.23 40.83 37.62 40.68 38.96C40.68 38.97 40.68 38.97 40.68 38.98C40.67 39.07 40.66 39.16 40.64 39.24L41.02 37.84C41.09 37.6 41.15 37.41 41.19 37.26L41.3 36.84C41.31 36.81 41.31 36.78 41.32 36.75L42.59 32.16C43.11 30.13 45.11 28.84 47.18 29.21L47.41 29.26C48.04 29.37 48.62 29.63 49.1 29.99C50.3 30.89 50.95 32.43 50.62 34L49.34 39.7C50.25 38.87 51.46 38.44 52.7 38.51C53.08 38.53 53.45 38.59 53.83 38.71C54.32 38.86 54.78 39.09 55.18 39.38C56.61 40.42 57.39 42.21 57.05 44.03L56.52 46.89V46.9L60.07 48.11C61.94 48.76 63.06 50.67 62.71 52.62Z" fill="#FCAF9F"/>
<path d="M57.05 44.03L56.52 46.89V46.9L53.9 58.34C53.71 59.18 52.43 58.95 52.55 58.09L55.18 39.38C56.61 40.42 57.39 42.21 57.05 44.03ZM50.62 34L49.34 39.7L44.73 57.68C44.63 58.04 44.25 58.27 43.89 58.17C43.53 58.08 43.31 57.73 43.38 57.37L48.5 30.93C48.6 30.49 48.82 30.17 49.1 29.99C50.3 30.89 50.95 32.43 50.62 34ZM40.68 38.96C40.68 38.97 40.68 38.97 40.68 38.98C40.22 40.53 39.55 42.81 38.84 45.21C37.28 50.47 35.55 56.33 35.55 56.33C35.34 57.06 34.21 56.79 34.36 56.03L38.35 36.26C38.41 36.02 38.5 35.82 38.62 35.66C39.88 36.23 40.83 37.62 40.68 38.96Z" fill="#FA847A"/>
<path d="M41.3 36.84C41.29 36.89 41.28 36.94 41.27 36.99C41.27 36.99 41.24 37.09 41.19 37.26L41.3 36.84Z" fill="black"/>
<path d="M35.61 83.38C35.6 83.7 35.34 83.95 35.03 83.94C34.73 83.94 34.49 83.7 34.47 83.41C34.1 77.88 31.82 72.59 27.93 68.7C26.66 67.43 25.24 66.31 23.72 65.38C24.12 64.49 24.52 63.58 24.9 62.65C25.08 62.69 25.25 62.77 25.4 62.89C31.88 67.52 35.79 75.48 35.61 83.38Z" fill="#FA847A"/>
<path d="M44 113C43.33 116.67 42.67 120.33 42 124H4C6 116.33 8 108.68 10 101.01C10 101 10 101 10 101C13.56 103.55 18.57 106.59 25 109C32.51 111.81 39.22 112.73 44 113Z" fill="#ECEAFD"/>
<path d="M42 124H4C6 116.33 8 108.68 10 101.01C10 101.53 10.19 124 42 124ZM118 101C118 101 95.298 97.511 84 113L97.638 117.681L115.425 110.958L118 101Z" fill="#C5C2FF"/>
<path d="M65.29 52.62L69.14 73.64C69.91 77.8 71.68 81.72 74.3 85.05L82 97L86.2 112.83C102.4 116.66 114.88 103.1 114.88 103.1L110.9 86.15L115.88 71.73C116.83 69 117.13 66.08 116.78 63.21L113.36 49.34C112.77 46.95 109.86 46.01 107.99 47.62C105.15 50.06 103.61 53.68 103.83 57.41L104.13 62.74L104.28 65.38C103.88 64.49 103.48 63.58 103.1 62.65C101.2 58.22 99.38 53.35 97.73 48.05C96.56 44.26 95.59 40.62 94.79 37.16C94.72 36.94 94.39 36.07 93.45 35.52C92.84 35.17 92.11 35.03 91.37 35.18L90.04 35.44C89.81 35.48 89.59 35.56 89.38 35.66C88.12 36.23 87.17 37.62 87.32 38.96C87.32 38.97 87.32 38.97 87.32 38.98C87.33 39.07 87.34 39.16 87.36 39.24L86.98 37.84C86.91 37.6 86.85 37.41 86.81 37.26L86.7 36.84C86.69 36.81 86.69 36.78 86.68 36.75L85.41 32.16C84.89 30.13 82.89 28.84 80.82 29.21L80.59 29.26C79.96 29.37 79.38 29.63 78.9 29.99C77.7 30.89 77.05 32.43 77.38 34L78.66 39.7C77.75 38.87 76.54 38.44 75.3 38.51C74.92 38.53 74.55 38.59 74.17 38.71C73.68 38.86 73.22 39.09 72.82 39.38C71.39 40.42 70.61 42.21 70.95 44.03L71.48 46.89V46.9L67.93 48.11C66.06 48.76 64.94 50.67 65.29 52.62Z" fill="#FCAF9F"/>
<path d="M70.95 44.03L71.48 46.89V46.9L74.1 58.34C74.29 59.18 75.57 58.95 75.45 58.09L72.82 39.38C71.39 40.42 70.61 42.21 70.95 44.03ZM77.38 34L78.66 39.7L83.27 57.68C83.37 58.04 83.75 58.27 84.11 58.17C84.47 58.08 84.69 57.73 84.62 57.37L79.5 30.93C79.4 30.49 79.18 30.17 78.9 29.99C77.7 30.89 77.05 32.43 77.38 34ZM87.32 38.96C87.32 38.97 87.32 38.97 87.32 38.98C87.78 40.53 88.45 42.81 89.16 45.21C90.72 50.47 92.45 56.33 92.45 56.33C92.66 57.06 93.79 56.79 93.64 56.03L89.65 36.26C89.59 36.02 89.5 35.82 89.38 35.66C88.12 36.23 87.17 37.62 87.32 38.96ZM92.39 83.38C92.4 83.7 92.66 83.95 92.97 83.94C93.27 83.94 93.51 83.7 93.53 83.41C93.9 77.88 96.18 72.59 100.07 68.7C101.34 67.43 102.76 66.31 104.28 65.38C103.88 64.49 103.48 63.58 103.1 62.65C102.92 62.69 102.75 62.77 102.6 62.89C96.12 67.52 92.21 75.48 92.39 83.38Z" fill="#FA847A"/>
<path d="M84 113C84.67 116.67 85.33 120.33 86 124H124C122 116.33 120 108.68 118 101.01C118 101 118 101 118 101C114.44 103.55 109.43 106.59 103 109C95.49 111.81 88.78 112.73 84 113Z" fill="#ECEAFD"/>
<path d="M86 124H124C122 116.33 120 108.68 118 101.01C118 101.53 117.81 124 86 124Z" fill="#C5C2FF"/>
<path d="M31.5 17C31.5 17.7 31.02 18.3 30.34 18.46C28.32 18.93 25.36 20.05 22.7 22.7C21.24 24.17 19.31 26.68 18.46 30.34C18.3 31.02 17.7 31.5 17 31.5C16.3 31.5 15.7 31.02 15.54 30.34C15.07 28.32 13.95 25.36 11.3 22.7C9.83 21.24 7.32 19.31 3.66 18.46C2.98 18.3 2.5 17.7 2.5 17C2.5 16.3 2.98 15.7 3.66 15.54C5.68 15.07 8.64 13.95 11.3 11.3C12.76 9.83 14.69 7.32 15.54 3.66C15.7 2.98 16.3 2.5 17 2.5C17.7 2.5 18.3 2.98 18.46 3.66C18.93 5.68 20.05 8.64 22.7 11.3C24.17 12.76 26.68 14.69 30.34 15.54C31.02 15.7 31.5 16.3 31.5 17ZM125.5 14C125.5 14.7 125.02 15.3 124.34 15.46C122.83 15.81 120.62 16.65 118.63 18.63C117.54 19.73 116.1 21.61 115.46 24.34C115.3 25.02 114.7 25.5 114 25.5C113.3 25.5 112.7 25.02 112.54 24.34C112.19 22.83 111.35 20.62 109.37 18.63C108.27 17.54 106.39 16.1 103.66 15.46C102.98 15.3 102.5 14.7 102.5 14C102.5 13.3 102.98 12.7 103.66 12.54C105.17 12.19 107.38 11.35 109.37 9.37C110.46 8.27 111.9 6.39 112.54 3.66C112.7 2.98 113.3 2.5 114 2.5C114.7 2.5 115.3 2.98 115.46 3.66C115.81 5.17 116.65 7.38 118.63 9.37C119.73 10.46 121.61 11.9 124.34 12.54C125.02 12.7 125.5 13.3 125.5 14Z" fill="#FFC362"/>
</svg>