<svg xmlns="http://www.w3.org/2000/svg" width="128" height="128" viewBox="0 0 128 128" fill="none">
<g clip-path="url(#clip0_1446_2669)">
<path fill-rule="evenodd" clip-rule="evenodd" d="M59.5612 54.4697C59.5612 54.4697 70.4591 64.2495 70.4591 76.428C70.4591 82.4425 65.5764 87.3255 59.5612 87.3255C53.5468 87.3255 48.664 82.4425 48.664 76.428C48.664 64.2495 59.5612 54.4697 59.5612 54.4697Z" fill="url(#paint0_linear_1446_2669)"/>
<path fill-rule="evenodd" clip-rule="evenodd" d="M61.8623 61.4982C61.8623 61.4982 66.1185 65.3178 66.1185 70.0743C66.1185 72.4233 64.2115 74.3305 61.8623 74.3305C59.5134 74.3305 57.6064 72.4233 57.6064 70.0743C57.6064 65.3178 61.8623 61.4982 61.8623 61.4982Z" fill="#C0EAFF"/>
<path d="M111.246 31.8378H97.494V48.4136H111.246V31.8378Z" fill="url(#paint1_linear_1446_2669)"/>
<path fill-rule="evenodd" clip-rule="evenodd" d="M51.214 56.2559C51.1997 56.5877 51.3171 56.896 51.541 57.133C51.765 57.37 52.0743 57.5003 52.399 57.5003C55.1933 57.5003 62.0452 57.5003 64.7494 57.5003C65.3562 57.5003 65.8657 57.0381 65.9297 56.4337C66.4594 51.3025 70.799 47.2972 76.0747 47.2972V32.6146C62.7443 32.6146 51.861 43.0902 51.214 56.2559Z" fill="url(#paint2_linear_1446_2669)"/>
<path fill-rule="evenodd" clip-rule="evenodd" d="M100.741 29.393C102.262 29.393 103.495 30.624 103.495 32.1406V48.103C103.495 49.6264 102.262 50.8574 100.741 50.8574H76.2967C74.7766 50.8574 73.5436 49.6264 73.5436 48.103V32.1406C73.5436 30.624 74.7766 29.393 76.2967 29.393H100.741Z" fill="url(#paint3_linear_1446_2669)"/>
<path d="M92.8582 29.3903H84.1809V22.2021H92.8582V29.3903Z" fill="url(#paint4_linear_1446_2669)"/>
<path fill-rule="evenodd" clip-rule="evenodd" d="M99.6677 12.8003C100.915 12.8003 102.111 13.2948 102.992 14.1766C103.874 15.0584 104.369 16.253 104.369 17.5012C104.369 18.7465 103.874 19.944 102.992 20.8258C102.111 21.7076 100.915 22.2021 99.6677 22.2021H77.3695C76.1227 22.2021 74.9271 21.7076 74.0452 20.8258C73.1634 19.944 72.6682 18.7465 72.6682 17.5012C72.6682 16.253 73.1634 15.0584 74.0452 14.1766C74.9271 13.2948 76.1227 12.8003 77.3695 12.8003H99.6677Z" fill="url(#paint5_linear_1446_2669)"/>
<path fill-rule="evenodd" clip-rule="evenodd" d="M33.913 88.9324C33.913 88.9324 43.3994 82.2582 47.7484 79.1984C49.1384 78.2206 50.788 77.6807 52.4871 77.6468C56.3625 77.5717 63.6275 77.4295 67.7338 77.3498C69.477 77.3154 70.986 78.5567 71.2889 80.2742C71.3771 80.7749 71.4695 81.2987 71.5599 81.8113C71.8994 83.7367 70.6136 85.5729 68.6883 85.9123L57.1775 87.942C56.4788 88.0652 55.8904 88.5346 55.6156 89.1891C55.3414 89.8434 55.4185 90.5922 55.8198 91.1766C55.9193 91.322 56.0147 91.4608 56.1034 91.59C56.4668 92.1196 57.0539 92.4519 57.6945 92.4918C60.006 92.6344 65.8386 92.9954 70.696 93.2951C75.5264 93.5939 80.29 92.0516 84.0284 88.9785C87.951 85.7543 92.898 81.6884 95.6646 79.4145C96.9147 78.3868 98.7007 78.3325 100.011 79.2831C100.038 79.3022 100.065 79.3219 100.092 79.3418C101.615 80.4461 102.014 82.5441 101.005 84.131C98.4988 88.0684 93.9925 95.1474 91.5886 98.9234C90.5296 100.588 89.0707 101.959 87.3459 102.915C83.257 105.179 75.3402 109.561 70.4841 112.25C67.8126 113.729 64.7158 114.249 61.7076 113.724C53.2163 112.241 36.0604 109.245 36.0604 109.245L33.913 88.9324Z" fill="url(#paint6_linear_1446_2669)"/>
<path fill-rule="evenodd" clip-rule="evenodd" d="M32.5366 84.0136C34.1702 83.7256 35.7275 84.8163 36.0155 86.4494C36.9917 91.986 39.0844 103.854 40.0607 109.39C40.3487 111.024 39.2584 112.581 37.6248 112.869C33.9947 113.509 27.8737 114.589 24.243 115.229C22.61 115.517 21.0522 114.426 20.7642 112.793C19.7879 107.256 17.6952 95.3886 16.719 89.852C16.431 88.2189 17.5218 86.6612 19.1549 86.3733C22.7855 85.7331 28.9066 84.6537 32.5366 84.0136Z" fill="url(#paint7_linear_1446_2669)"/>
<path d="M30.3163 110.547C32.112 110.231 33.3111 108.518 32.9945 106.723C32.6778 104.927 30.9654 103.728 29.1696 104.044C27.3739 104.361 26.1748 106.074 26.4914 107.869C26.8081 109.665 28.5205 110.864 30.3163 110.547Z" fill="url(#paint8_linear_1446_2669)"/>
</g>
<defs>
<linearGradient id="paint0_linear_1446_2669" x1="59.5612" y1="77.76" x2="59.5612" y2="48.7755" gradientUnits="userSpaceOnUse">
<stop stop-color="#99DDFF"/>
<stop offset="1" stop-color="#14B1FF"/>
</linearGradient>
<linearGradient id="paint1_linear_1446_2669" x1="104.794" y1="31.8378" x2="105.174" y2="49.3073" gradientUnits="userSpaceOnUse">
<stop stop-color="#B3654D"/>
<stop offset="1" stop-color="#6B3C2E"/>
</linearGradient>
<linearGradient id="paint2_linear_1446_2669" x1="62.8616" y1="32.6146" x2="62.5458" y2="58.8553" gradientUnits="userSpaceOnUse">
<stop stop-color="#B3654D"/>
<stop offset="1" stop-color="#6B3C2E"/>
</linearGradient>
<linearGradient id="paint3_linear_1446_2669" x1="88.519" y1="36.6158" x2="88.519" y2="50.9245" gradientUnits="userSpaceOnUse">
<stop stop-color="#FFD9B3"/>
<stop offset="1" stop-color="#FFAA80"/>
</linearGradient>
<linearGradient id="paint4_linear_1446_2669" x1="88.7869" y1="29.3903" x2="88.8415" y2="21.8113" gradientUnits="userSpaceOnUse">
<stop stop-color="#B3654D"/>
<stop offset="1" stop-color="#6B3C2E"/>
</linearGradient>
<linearGradient id="paint5_linear_1446_2669" x1="88.5186" y1="15.964" x2="88.5186" y2="22.2315" gradientUnits="userSpaceOnUse">
<stop stop-color="#FFD9B3"/>
<stop offset="1" stop-color="#FFAA80"/>
</linearGradient>
<linearGradient id="paint6_linear_1446_2669" x1="105.237" y1="89.772" x2="33.9027" y2="102.35" gradientUnits="userSpaceOnUse">
<stop stop-color="#FFD9B3"/>
<stop offset="1" stop-color="#FF8C66"/>
</linearGradient>
<linearGradient id="paint7_linear_1446_2669" x1="26.4405" y1="85.0886" x2="33.0449" y2="115.255" gradientUnits="userSpaceOnUse">
<stop stop-color="#B3654D"/>
<stop offset="1" stop-color="#6B3C2E"/>
</linearGradient>
<linearGradient id="paint8_linear_1446_2669" x1="29.1696" y1="104.044" x2="30.3074" y2="110.497" gradientUnits="userSpaceOnUse">
<stop stop-color="#F4F6F2"/>
<stop offset="1" stop-color="#D1D2D3"/>
</linearGradient>
<clipPath id="clip0_1446_2669">
<rect width="128" height="128" fill="white"/>
</clipPath>
</defs>
</svg>